<svg xmlns="http://www.w3.org/2000/svg" viewBox="0 0 96 96" role="img" aria-label="野球のグローブ">
  <path fill="#a95c27" stroke="#5f2d15" stroke-linejoin="round" stroke-width="5" d="M19 48c-4-8-2-16 4-19 4-2 8 0 11 5l2 4V18c0-6 4-10 9-10s9 4 9 10v17-20c0-6 4-10 9-10s9 4 9 10v24-15c0-6 4-10 9-10s9 4 9 10v31c0 22-15 36-37 36-20 0-32-11-38-27L9 49c-2-6 1-11 6-12 4-1 8 2 10 7l6 13"/>
  <path fill="none" stroke="#f1b06c" stroke-linecap="round" stroke-width="4" d="M46 18v27M63 15v30M80 24v27M31 57c12-4 24 0 31 10"/>
  <path fill="#6b351a" d="M26 61c13-9 32-6 42 7-5 11-15 17-29 16-8-5-12-12-13-23Z"/>
  <path fill="none" stroke="#e8a561" stroke-dasharray="3 4" stroke-linecap="round" stroke-width="3" d="M31 65c11-5 24-2 31 7"/>
</svg>
